<?xml version="1.0" encoding="utf-8"?>
<!-- Generator: Adobe Illustrator 27.6.1, SVG Export Plug-In . SVG Version: 6.00 Build 0)  -->
<svg version="1.1" id="Layer_1" xmlns="http://www.w3.org/2000/svg" xmlns:xlink="http://www.w3.org/1999/xlink" x="0px" y="0px"
	 viewBox="0 0 373.9 203" style="enable-background:new 0 0 373.9 203;" xml:space="preserve">
<style type="text/css">
	.st0{fill:#FFFFFF;}
</style>
<path class="st0" d="M342.7,38.3l-46,46L283,70.6L259.8,92l-8-8.6l30.6-28.6L296,68.4l30.7-30.7l7-7l1-1c0.1,0.4,0.3,0.8,0.4,1.1
	l0,0c0.1,0.3,0.2,0.5,0.4,0.8C337.1,34.6,339.6,37,342.7,38.3z"/>
<path class="st0" d="M348.7,0c-14,0-25.3,11.3-25.3,25.3c0,4.4,1.1,8.7,3.3,12.5c0.2,0.3,0.4,0.7,0.6,1s0.3,0.5,0.5,0.7
	c1.8,2.7,4.2,5,6.9,6.8c0.3,0.2,0.6,0.4,1,0.6s0.5,0.3,0.7,0.4c12.2,6.8,27.6,2.4,34.4-9.8c6.8-12.2,2.4-27.6-9.8-34.4
	C357.2,1.1,353,0,348.7,0L348.7,0z M348.7,39.6c-1.4,0-2.7-0.2-4-0.5c-0.3-0.1-0.6-0.2-0.9-0.3c-0.4-0.1-0.8-0.3-1.1-0.4
	c-3-1.4-5.6-3.7-7.1-6.7c-0.1-0.2-0.2-0.5-0.4-0.8l0,0c-0.2-0.4-0.3-0.7-0.4-1.1c-0.6-1.6-0.8-3.2-0.8-4.9c0-8.1,6.6-14.8,14.7-14.8
	c8.1,0,14.8,6.6,14.8,14.7C363.4,32.9,356.8,39.5,348.7,39.6C348.7,39.6,348.7,39.6,348.7,39.6L348.7,39.6z"/>
<path class="st0" d="M216.8,68.3c-1.1-2-2.3-3.8-3.6-5.7c-0.3,0.4-6.5,8.1-2.9,14.5c2.3,4.1,7.6,8.4,15.2,12.2
	C223.6,82,220.6,74.9,216.8,68.3z M191.2,126.6c-0.1,0.6-0.2,1.2-0.4,1.8c-0.8,3.6-1.8,7.2-3.2,10.6l4.9-1.7c0.9,4.1,2.3,8.2,4.1,12
	c2.8,6.2,7.4,12.8,14.2,14.7c0.9-1.2,1.8-2.4,2.6-3.6c1.2-1.8,2.4-3.6,3.5-5.5c1.8-3.1,3.4-6.3,4.8-9.6c0.8-1.7,1.4-3.5,2-5.3
	C215.6,132.6,199.6,128.3,191.2,126.6z M142,25.2H86.2V92l18.9-13.3l16,23V52.4h20.5c3.4,0,6.8,0.3,10.2,0.9
	c2.2-9.5,7.2-18,14.3-24.6C158.3,26.4,150.1,25.2,142,25.2L142,25.2z M151.6,170c-3.3,0.6-6.5,0.8-9.8,0.8h-20.5v-42.2
	c-4.3,2.6-11,7.8-11,7.8l-6.6-9.6l-6.2-9l-11.1,7.8v72.1H142c9.2,0,18.3-1.4,27-4.2C158.4,185.4,153.7,176.6,151.6,170L151.6,170z"
	/>
<path class="st0" d="M280.5,130.4c-2.4-6.2-5.7-10.9-9.8-14.2c-4.3-3.5-8.9-6.4-13.8-8.9c-4.9-2.5-10.2-4.4-15.6-5.7
	c-4.8-1.1-9.5-2.3-14.1-3.8c-0.5-0.1-0.9-0.3-1.4-0.4c-5-1.6-9.5-3.3-13.5-5c-3.8-1.6-7-4.2-9.2-7.6c-2.3-3.6-3.3-7.9-2.9-12.1
	c0.5-8,3-13.6,7.6-16.9c3.5-2.5,8.2-3.6,14.2-3.3c3,0.1,5.9,0.7,8.7,1.7c2.4,0.8,4.7,2,6.8,3.3c1.8,1.3,3.5,2.8,5,4.5
	c1.3,1.4,2.5,3,3.6,4.6c0.9,1.3,1.6,2.7,2.2,4.2c0.6,1.5,0.9,2.5,1.1,3c0.1,0.4,0.3,0.8,0.4,1.2l25.4-22.3l-1.1-2.5
	c-1.3-2.4-3-4.5-4.9-6.4c-2.7-2.8-5.6-5.4-8.8-7.7c-4.4-3-9.2-5.4-14.4-6.9c-13.6-4.2-28-5-42-2.1c-6.7,1.4-13.1,3.9-18.9,7.3
	c-0.7,0.4-1.4,0.9-2,1.3c-4.9,3.4-9,7.8-12,12.9c-1.9,3.2-3.3,6.6-4.3,10.1c-1,3.7-1.6,7.5-1.8,11.3c-0.4,8.4,0.7,15.8,3.6,22.2
	c2.5,5.9,6.5,11.1,11.6,15.1c3.8,2.9,7.9,5.5,12.2,7.8c1.4,0.7,2.8,1.4,4.3,2.1c6.1,2.8,12.2,5.3,18.4,7.4c4.1,1.4,7.9,2.9,11.5,4.4
	c1.8,0.8,3.6,1.5,5.3,2.3c4.7,2,8.9,5,12.5,8.7c3.2,3.3,5,7.7,4.9,12.3c0,2.6-0.5,5.1-1.4,7.5c-1.1,2.5-2.7,4.8-4.7,6.7
	c-2.2,2.2-5.4,3.8-9.8,4.9c-5.2,1.2-10.6,1.6-15.9,1.2c-4-0.3-8-1.1-11.8-2.5c-1-0.4-1.9-0.8-2.9-1.3c-4.2-2.1-7.2-4.3-9-6.7
	c-1.9-2.4-3.4-5.1-4.4-8c-0.8-2-1.3-4.1-1.7-6.2c-0.1-1.2-0.1-2.1-0.1-2.7l-4,1.9l-26.3,12.4l0.7,2.2c0.8,2,1.8,3.9,2.8,5.8
	c0,0,0,0.1,0.1,0.1c1.3,2.5,2.9,5.2,4.8,8.1c2.1,3.3,4.7,6.3,7.6,9c1.8,1.7,3.7,3.3,5.7,4.9c1.5,1.2,3.1,2.4,4.8,3.5
	c4.3,2.8,9,5,13.9,6.5c5.7,1.8,11.6,3,17.6,3.3c9.7,0.7,19.3-0.4,28.6-3.2c8.8-2.7,16.2-6.6,21.9-11.5c5.6-4.7,10.2-10.4,13.6-16.8
	c3.2-5.9,4.9-12.5,4.9-19.2C284.2,143.8,283,136.6,280.5,130.4z"/>
<path class="st0" d="M122.3,119.6c-0.4,0.2-0.7,0.3-1.1,0.5c-3.2,1.6-6.1,3.8-8.6,6.4l-13.8-20l-12.6,8.8l-37.3,26.1l-9,6.3
	c-0.6-3.9-2.6-7.3-5.8-9.7l8.6-5.9l43.5-30l5.3-3.7l10.9-7.6l11.5,16.8l7.1,10.3L122.3,119.6z"/>
<path class="st0" d="M48.9,141.5c-1.3-3.5-3.4-6.7-6.2-9.3c-10-9.7-26-9.5-35.7,0.6c-7,7.2-9,17.8-5.3,27c0.1,0.2,0.2,0.5,0.3,0.8
	c1.5,3.4,3.7,6.4,6.4,8.8l0.6,0.6c10.7,8.9,26.7,7.4,35.5-3.4c2.8-3.3,4.6-7.3,5.4-11.6C50.9,150.4,50.5,145.8,48.9,141.5z
	 M39.9,152.6c-1.5,8-9.2,13.3-17.2,11.8c-1.3-0.2-2.6-0.7-3.8-1.2c-0.3-0.1-0.5-0.3-0.8-0.4c-3.3-1.9-5.7-4.9-6.8-8.5
	c-0.1-0.3-0.2-0.6-0.2-0.8l0,0c-0.5-2-0.6-4.1-0.2-6.1c1.7-8,9.6-13,17.5-11.3C36,137.6,41,144.9,39.9,152.6L39.9,152.6z"/>
</svg>
